<svg xmlns="http://www.w3.org/2000/svg" width="116.007" height="130.072" viewBox="0 0 116.007 130.072">
  <g id="ic1-fix" transform="translate(1.062 1.072)">
    <path id="Pfad_66" data-name="Pfad 66" d="M90.872,37.7A10.4,10.4,0,0,0,88.88,36.18a9.111,9.111,0,0,0-1.655-.754,10.579,10.579,0,0,0-6.608-.485,7.941,7.941,0,0,0-4.9,3.688L67.978,52.2,48.557,85.843c-1.346,2.355-7.51,14.334-12.772,25.881-10.929,24.011-8.6,25.343-7.214,26.151a2.1,2.1,0,0,0,1.144.363c1.871,0,6.083-2.692,19.058-18.937,8.075-10.094,16.016-21.2,17.268-23.365L76.673,77.512a7.214,7.214,0,0,0,.929-1.279L93.281,48.75C95.273,45.264,94.169,40.715,90.872,37.7ZM62.366,67.431,70.28,53.568,77.426,41.2a7.389,7.389,0,0,1,6.42-3.7,7.241,7.241,0,0,1,2.692.511,9.179,9.179,0,0,1,.969.471,10.053,10.053,0,0,1,1.467,1.077,7.483,7.483,0,0,1,2.059,3.432,7.362,7.362,0,0,1-.794,5.6L74.506,75.87a5.491,5.491,0,0,1-2.517,1.44,8.183,8.183,0,0,1-6.083-.956C62.3,74.3,60.737,70.3,62.366,67.431Zm1.346,27.12c-3.365,5.814-28.385,38.909-33.647,40.794-.673-5.384,16.433-40.538,20.848-48.2l8.533-14.8a10.888,10.888,0,0,0,5.114,6.339,11.413,11.413,0,0,0,5.653,1.561,10.3,10.3,0,0,0,1.938-.215Z" transform="translate(-19.723 -10.238)" fill="#ad5f35" stroke="#ad5f35" stroke-width="2"/>
    <g id="Gruppe_7952" data-name="Gruppe 7952">
      <path id="Pfad_67" data-name="Pfad 67" d="M69.51,53.533c.942.188,1.925.4,2.934.659L73.79,51.77c-1.009-.269-1.978-.5-2.921-.7Z" transform="translate(-5.144 -4.55)" fill="#ad5f35" stroke="#ad5f35" stroke-width="2"/>
      <path id="Pfad_68" data-name="Pfad 68" d="M84.854,62.514c-3.822-.673-7.16-.956-10.323-1.225-5.384-.471-10.067-.861-15.72-3.028C44.518,52.783,32.876,39,24.262,17.306a1.346,1.346,0,0,0-2.5.982c8.923,22.436,21.063,36.729,36.1,42.49A56.015,56.015,0,0,0,74.3,63.968c2.813.242,5.787.5,9.112,1.036Z" transform="translate(-21.686 -16.505)" fill="#ad5f35" stroke="#ad5f35" stroke-width="2"/>
      <path id="Pfad_69" data-name="Pfad 69" d="M110.463,74.546c-3.324-4.939-9.663-12.274-26.177-19.125a92.289,92.289,0,0,0-9.3-3.311L73.64,54.519A86.714,86.714,0,0,1,83.29,57.9c15.8,6.581,21.79,13.513,24.939,18.156a43.674,43.674,0,0,1,6.729,17,1.346,1.346,0,0,0,1.346,1.117h.229a1.346,1.346,0,0,0,1.1-1.561A45.868,45.868,0,0,0,110.463,74.546Z" transform="translate(-3.715 -4.19)" fill="#ad5f35" stroke="#ad5f35" stroke-width="2"/>
    </g>
  </g>
</svg>
