<svg xmlns="http://www.w3.org/2000/svg" xmlns:xlink="http://www.w3.org/1999/xlink" width="72" height="84.828" viewBox="0 0 72 84.828">
  <defs>
    <clipPath id="clip-path">
      <rect id="Rechteck_2" data-name="Rechteck 2" width="72" height="84.828" fill="none"/>
    </clipPath>
  </defs>
  <g id="Gruppe_73" data-name="Gruppe 73" transform="translate(-83 -227.637)">
    <text id="Form_schön" data-name="Form
     schön" transform="translate(107.04 274.477)" fill="#fff" font-size="15" font-family="Yellowtail-Regular, Yellowtail"><tspan x="0" y="0">Form</tspan><tspan x="0" y="10" xml:space="preserve">     schön</tspan></text>
    <g id="Gruppe_1" data-name="Gruppe 1" transform="translate(83 227.637)" clip-path="url(#clip-path)">
      <path id="Pfad_1" data-name="Pfad 1" d="M53.47,63.659A25.171,25.171,0,0,1,55.39,60.3a10.522,10.522,0,0,1,1.577-1.808,5.937,5.937,0,0,1,.828-.621,3.455,3.455,0,0,1,1.469-.6,2.028,2.028,0,0,1,.389-.029,1.772,1.772,0,0,1,.389.025h.194l.194.054.389.108a8.1,8.1,0,0,1,2.8,1.924,15.045,15.045,0,0,1,2.789,3.286,16.08,16.08,0,0,0-2.069-3,9.969,9.969,0,0,0-2.789-2.309A3.823,3.823,0,0,0,58.762,57,5.321,5.321,0,0,0,56.4,58.614a13.014,13.014,0,0,0-1.655,2.4,24.992,24.992,0,0,0-1.266,2.644" transform="translate(-31.344 -33.34)" fill="#fff"/>
      <path id="Pfad_2" data-name="Pfad 2" d="M79.52,62.24a17.028,17.028,0,0,1,4.188,8.714,16.322,16.322,0,0,0-1.034-2.868A17.027,17.027,0,0,0,79.52,62.24" transform="translate(-46.615 -36.486)" fill="#fff"/>
      <path id="Pfad_3" data-name="Pfad 3" d="M59.629,142.6l-.132.48-.17.459-.385.952c-.261.633-.534,1.241-.828,1.85a13.036,13.036,0,0,1-1,1.688,5.143,5.143,0,0,1-1.241,1.3,1.841,1.841,0,0,1-1.324.381,2.259,2.259,0,0,1-1.072-.794,7.556,7.556,0,0,1-1.5-3.277,12.3,12.3,0,0,1-.211-3.782,8.371,8.371,0,0,1,.116-.956c.046-.319.1-.633.166-.968.128-.658.281-1.32.434-1.982.414-1.966.956-3.952,1.39-6.008a29.529,29.529,0,0,0,.7-5.491,24.414,24.414,0,0,0-.476-6.05,21.251,21.251,0,0,0-.906-2.938l-.054-.137c-.2.861-.534,1.655-.778,2.421a16.836,16.836,0,0,1,.463,1.866,23.285,23.285,0,0,1,.348,4.138,25.555,25.555,0,0,1-.273,4.138c-.414,2.735-1.121,5.4-1.655,8.1a25.242,25.242,0,0,0-.554,4.03,13.333,13.333,0,0,0,.447,4.03c.083.327.211.637.319.96a9.047,9.047,0,0,0,.414.91,6.48,6.48,0,0,0,1.15,1.618,3.559,3.559,0,0,0,.753.6,2.483,2.483,0,0,0,.414.195,1.373,1.373,0,0,0,.439.05,2.6,2.6,0,0,0,1.7-.658,9.11,9.11,0,0,0,2.214-3.286c.277-.617.53-1.241.766-1.9a18.8,18.8,0,0,0,.633-1.932c.666-2.64,1.1-5.379,1.589-8.077-.588,2.71-1.13,5.454-1.9,8.061" transform="translate(-29.704 -68.78)" fill="#fff"/>
      <path id="Pfad_4" data-name="Pfad 4" d="M50.774,129.767c0,.161,0,.65-.05,1.39a24.975,24.975,0,0,1-.286,2.826,75.456,75.456,0,0,1-1.974,7.862c-.194.708-.381,1.423-.55,2.131s-.323,1.4-.434,2.127a16.461,16.461,0,0,0-.178,3.968,14.044,14.044,0,0,0,.563,2.835c.112.339.219.6.286.782a2.283,2.283,0,0,0,.116.269,7.94,7.94,0,0,0,2.168,2.805,4.3,4.3,0,0,0,.956.554,2.7,2.7,0,0,0,.637.194,2.367,2.367,0,0,0,.612.05,3.866,3.866,0,0,0,1.13-.141,3.482,3.482,0,0,0,.517-.186,2.724,2.724,0,0,0,.48-.236,7.415,7.415,0,0,0,2.483-2.6,19.646,19.646,0,0,0,1.4-2.8c.194-.468.377-.935.546-1.394a15.623,15.623,0,0,0,.5-1.486c.281-.993.5-1.949.708-2.9.414-1.916.757-3.819,1.117-5.71.145-1.159.281-2.346.472-3.418s.488-2.23.782-3.356c.6-2.255,1.241-4.5,2.007-6.728-.766,1.8-1.469,3.617-2.143,5.454a45.267,45.267,0,0,0-1.73,5.553c-.414,1.9-.786,3.836-1.192,5.76-.2.96-.414,1.924-.641,2.9a28.088,28.088,0,0,1-.8,2.868,26.6,26.6,0,0,1-1.891,4.37,8.077,8.077,0,0,1-1.477,1.932,3.31,3.31,0,0,1-2.317.956,1.8,1.8,0,0,1-.666-.116l-.3-.137a3.1,3.1,0,0,1-.277-.17,4.712,4.712,0,0,1-.931-.828,8.007,8.007,0,0,1-1.27-2.069,12.191,12.191,0,0,1-.948-4.7,21.791,21.791,0,0,1,.538-4.734c.31-1.548.679-3.074,1.026-4.606s.662-3.058.861-4.6a28.159,28.159,0,0,0,.153-4.655" transform="translate(-27.701 -74.22)" fill="#fff"/>
      <path id="Pfad_5" data-name="Pfad 5" d="M91.743,88.661A31.9,31.9,0,0,0,90.15,83.17a27.074,27.074,0,0,1,.923,5.412Z" transform="translate(-52.847 -48.755)" fill="#fff"/>
      <path id="Pfad_6" data-name="Pfad 6" d="M82.8,114.88c-.17.828-.3,1.452-.5,2.255a16.883,16.883,0,0,1-.828,2.446c-.343.828-.674,1.614-1,2.429-.654,1.61-1.246,3.265-1.833,4.92-.277.828-.55,1.655-.782,2.52s-.414,1.721-.588,2.574c.219-.848.414-1.7.7-2.545s.575-1.655.894-2.483c.637-1.63,1.324-3.236,2.036-4.829.356-.794.72-1.589,1.1-2.367a17.743,17.743,0,0,0,.981-2.483c.228-.753.414-1.655.6-2.383Z" transform="translate(-45.296 -67.343)" fill="#fff"/>
      <path id="Pfad_7" data-name="Pfad 7" d="M48.253,67.988a33.667,33.667,0,0,1,1.523-4.1,23.623,23.623,0,0,1,2.28-4.634,9.716,9.716,0,0,1,1.684-1.974,4.332,4.332,0,0,1,2.35-1.092,4.552,4.552,0,0,1,2.528.6,9,9,0,0,1,2.069,1.56,8.971,8.971,0,0,0-2.069-1.655,4.6,4.6,0,0,0-.583-.286c-.1-.041-.2-.1-.31-.132l-.327-.1a3.5,3.5,0,0,0-1.378-.182,4.61,4.61,0,0,0-2.52,1.1A10.026,10.026,0,0,0,51.688,59.1a17.591,17.591,0,0,0-1.014,1.692c-.273.5-.509.989-.737,1.514-.5,1.1-.927,2.234-1.312,3.377-.294,1.084-.546,1.349-.766,2.446Z" transform="translate(-28.056 -32.816)" fill="#fff"/>
      <path id="Pfad_8" data-name="Pfad 8" d="M24.013,53.246a19.378,19.378,0,0,0-1.159-3.679c-.269-.633-.563-1.241-.828-1.883s-.538-1.274-.757-1.928a14.9,14.9,0,0,1-.8-4.055,16.266,16.266,0,0,1,.36-4.138c.414-.157.828-.306,1.241-.439a15.074,15.074,0,0,0-.24,4.945,15.36,15.36,0,0,0,1.486,4.63c.083.207.17.414.265.621l.281.65c.2.455.393.919.571,1.39.1.257.194.521.286.782C25.673,46,27.013,40.3,27.853,37.964a36.916,36.916,0,0,0,2.988-13.01,3.915,3.915,0,0,0-.414-.166l-.389-.108-.194-.054h-.194a1.758,1.758,0,0,0-.389-.025,2.028,2.028,0,0,0-.389.029,3.476,3.476,0,0,0-1.469.6,5.938,5.938,0,0,0-.828.621A10.7,10.7,0,0,0,25,27.657a25.693,25.693,0,0,0-1.92,3.356,25.018,25.018,0,0,1,1.27-2.644A12.993,12.993,0,0,1,26,25.973a5.321,5.321,0,0,1,2.359-1.618,3.641,3.641,0,0,1,2.483.2v-.194a3.964,3.964,0,0,0-1.858-.3,4.332,4.332,0,0,0-2.346,1.092,9.459,9.459,0,0,0-1.684,1.974,23.64,23.64,0,0,0-2.276,4.639,43.672,43.672,0,0,0-1.262,4.891l-.641.157c.219-1.1.468-2.189.766-3.273a36.029,36.029,0,0,1,1.312-3.377c.228-.509.472-1.01.737-1.506a16.748,16.748,0,0,1,1.01-1.692,10.027,10.027,0,0,1,1.812-2.007,4.61,4.61,0,0,1,2.52-1.1,3.5,3.5,0,0,1,1.378.157l.327.1a1.973,1.973,0,0,1,.215.091,26.172,26.172,0,0,0-.542-5.379C28.333,9.442,22.888,3.4,17.033,2.651,8.012,1.5,6.522,8.933,5.815,11.829A48.815,48.815,0,0,0,4.772,24.764c.319,2.921,2.367,13.018,1.514,17.975s-3.166,13.817-3.6,19.241a9.3,9.3,0,0,0,8.768,9.931c4.982.385,8.1-4.39,9.17-6.406s2.52-8.615,3.207-11.5c.054-.219.112-.484.182-.778" transform="translate(-1.557 -1.484)" fill="#fff"/>
    </g>
  </g>
</svg>
