<svg xmlns="http://www.w3.org/2000/svg" width="172.266" height="72" viewBox="0 0 172.266 72">
  <path id="ic-fix2" d="M192.56,101.076c-1.977-5.714-7.039-9.768-14.988-12.022h-.237a137.459,137.459,0,0,1-64.913-28.73c-4.231-3.4-7.909-6.307-11.33-8.917l-.534-.494v-.2L100,50.537h0c-23.727-7.81-57.34-3.579-69.718,5.26a12.832,12.832,0,0,0-3.955,4.132h-.119l-.652,1.72a78.342,78.342,0,0,0-3.5,11.171h0a.554.554,0,0,0,0,.178c-2.867,12.358-1.72,23.055,3.361,31.893l.435,13.544H73.628l4.093-11.27h1.265c.692.316,1.6.732,2.669,1.186,15.818,6.7,29.441,9.886,41.522,9.886h2.1c28.1-.87,49.194-4.508,64.478-11.092A4.983,4.983,0,0,0,192.56,101.076ZM32.54,59.019c9.886-7.059,39.723-12.1,63.055-5.675C76.04,65.208,54.073,67.838,30.346,61.1a10.539,10.539,0,0,1,2.195-2.076ZM25.422,76c6.466,2.294,26.159,10.578,29.659,26.891l-26.535-.455C24.434,95.005,23.445,86.226,25.422,76ZM70.9,114.541H29.713l-.336-8.127,44.093.751Zm9.016-11.231H79.2l-20.03-.4C55.615,83.537,33.252,74.442,26.292,72.049a74.257,74.257,0,0,1,2.313-7.355c26.021,7.533,49.965,4.39,71.181-9.352q2.61,1.977,5.517,4.33l-6.268,5.793a1.98,1.98,0,0,0,2.689,2.907l6.742-6.149,1.483,1.186c1.325,1.048,2.65,1.977,3.955,3.085l-6.92,6.406a1.98,1.98,0,0,0,2.689,2.907l7.494-6.94c1.977,1.345,3.954,2.63,5.932,3.955l-8.067,7.533a2.008,2.008,0,0,0,2.788,2.887l8.858-8.285q3.955,2.313,7.909,4.39c-8.384,8.206-16.53,12.219-24.123,11.982a40.706,40.706,0,0,1-5-.593,21.1,21.1,0,0,0-11.824.316c-5.141,1.977-9.372,6.209-12.6,12.734l-.791-.356Zm108.413.316c-14.829,6.387-35.432,9.886-63.035,10.8-11.844.356-25.111-2.61-40.554-9.036,2.748-5.457,6.209-9.036,10.341-10.578a17.538,17.538,0,0,1,9.728-.257,38.421,38.421,0,0,0,5.5.652c9.056.356,18.487-4.429,28-14.1a141.216,141.216,0,0,0,38.359,11.864c6.663,1.977,10.657,5.022,12.219,9.491a1.008,1.008,0,0,1-.593,1.167Z" transform="translate(-20.521 -46.436)" fill="#ad5f35"/>
</svg>
