<svg xmlns="http://www.w3.org/2000/svg" width="129.635" height="108.066" viewBox="0 0 129.635 108.066">
  <g id="ic-fix3" transform="translate(0.75 0.75)" style="isolation: isolate">
    <path id="Pfad_63" data-name="Pfad 63" d="M152.21,61.611,132.625,42.026l.905-.905a5.816,5.816,0,0,0,0-8.205l-3.012-3.071a5.935,5.935,0,0,0-8.19,0L76.7,75.38h0L56.91,95.232a5.772,5.772,0,0,0-5.46,1.484L26.331,121.865a5.772,5.772,0,0,0,0,8.16l2.967,3.056a5.772,5.772,0,0,0,8.16,0l25.209-25.06a5.787,5.787,0,0,0,1.484-5.46L83.974,82.68l.252.267a5.312,5.312,0,0,0,3.739,1.484,5.252,5.252,0,0,0,3.724-1.484l2.359-2.359L113.9,100.44a1.485,1.485,0,1,0,2.107-2.092L96.155,78.5l4.006-4.006,16.8,16.8a1.485,1.485,0,0,0,2.107-2.092L102.327,72.413l4.2-4.184,19.645,19.689a1.5,1.5,0,0,0,2.092-2.151L108.544,66.092l3.828-3.813,16.662,16.692a1.479,1.479,0,0,0,2.092-2.092L114.464,60.172l4.006-4.006,19.748,19.748a1.479,1.479,0,1,0,2.092-2.092L120.562,54.074l3.739-3.739,17.137,17.122a1.479,1.479,0,0,0,2.092-2.092L126.408,48.243l4.11-4.125L150.1,63.7a1.485,1.485,0,0,0,2.107-2.092ZM55.531,98.022a2.789,2.789,0,0,1,1.988.816l3.042,2.967a2.819,2.819,0,0,1,0,3.976l-.3.3L53.246,99.12l.312-.312A2.745,2.745,0,0,1,55.531,98.022Zm-1.1,13.962-7-7.018,3.739-3.724,7,7.018Zm-5.683,5.683-7.018-7,3.591-3.605,7.018,7.018Zm-5.416,5.416-7.018-7,3.324-3.324,7,7.018Zm-5.49,5.49-7.018-7,3.4-3.4,7,7.018Zm-6.38,2.4L28.5,128.008a2.789,2.789,0,0,1,0-3.962l.312-.312,7,7.018-.3.3A2.864,2.864,0,0,1,31.465,130.975ZM62.623,99.817h0L59.566,96.85h0L78.81,77.531l3.056,3.056ZM89.6,80.855a2.359,2.359,0,0,1-3.264,0l-.326-.267h0L80.887,75.38l43.473-43.458a2.967,2.967,0,0,1,4.006,0l3.056,3.056a2.834,2.834,0,0,1,0,4.006Z" transform="translate(-24.641 -28.205)" fill="#ad5f35" stroke="#ad5f35" stroke-width="1.5"/>
    <path id="Pfad_64" data-name="Pfad 64" d="M51.51,38.19h4V42.1a1,1,0,1,0,2,0V38.19h3.76a1,1,0,0,0,0-2H57.48v-3.9a1,1,0,0,0-2,0v3.9h-4a1,1,0,0,0,0,2Z" transform="translate(-10.164 -28.205)" fill="#ad5f35" stroke="#ad5f35" stroke-width="1.5"/>
    <path id="Pfad_65" data-name="Pfad 65" d="M74.53,82.25h-3V79.07a1,1,0,0,0-2,0v3.18H66.24a1,1,0,0,0,0,2h3.24v3.18a1,1,0,0,0,2,0V84.25h3a1,1,0,0,0,0-2Z" transform="translate(-2.358 -0.019)" fill="#ad5f35" stroke="#ad5f35" stroke-width="1.5"/>
  </g>
</svg>
